<svg xmlns="http://www.w3.org/2000/svg" width="450" height="83" viewBox="0 0 450 83" fill="none"><path fill-rule="evenodd" clip-rule="evenodd" d="M92.2653 19.9508C92.2653 29.8667 84.3126 37.9009 74.4971 37.9009C64.6816 37.9009 56.7289 29.8667 56.7289 19.9508C56.7289 10.035 64.6816 2.00072 74.4971 2.00072C84.3126 2.00072 92.2653 10.035 92.2653 19.9508Z" fill="#195FF2"></path><path fill-rule="evenodd" clip-rule="evenodd" d="M24.3158 10.3611C24.3158 14.7138 20.8224 18.2449 16.5074 18.2449C12.1923 18.2449 8.69888 14.7138 8.69888 10.3611C8.69888 6.00846 12.1923 2.47739 16.5074 2.47739C20.8224 2.47739 24.3158 6.00846 24.3158 10.3611Z" fill="#195FF2"></path><path fill-rule="evenodd" clip-rule="evenodd" d="M38.2582 23.1432C38.2582 24.6046 37.0854 25.7962 35.6366 25.7962C34.1878 25.7962 33.0149 24.6109 33.0149 23.1432C33.0149 21.6756 34.1878 20.4902 35.6366 20.4902C37.0854 20.4902 38.2582 21.6756 38.2582 23.1432Z" fill="#4068B2"></path><path fill-rule="evenodd" clip-rule="evenodd" d="M54.5463 51.7116C54.5463 54.0761 52.6459 55.9953 50.3065 55.9953C47.9671 55.9953 46.0667 54.0761 46.0667 51.7116C46.0667 49.3471 47.9671 47.4279 50.3065 47.4279C52.6459 47.4279 54.5463 49.3471 54.5463 51.7116Z" fill="#4068B2"></path><path fill-rule="evenodd" clip-rule="evenodd" d="M64.1109 49.2468C64.1109 50.4572 63.1387 51.4419 61.9345 51.4419C60.7303 51.4419 59.7582 50.4572 59.7582 49.2468C59.7582 48.0363 60.7303 47.0516 61.9345 47.0516C63.1387 47.0516 64.1109 48.0363 64.1109 49.2468Z" fill="#4068B2"></path><path fill-rule="evenodd" clip-rule="evenodd" d="M47.1267 43.4077C47.1267 53.1353 39.3182 61.0254 29.6909 61.0254C20.0635 61.0254 12.2551 53.1353 12.2551 43.4077C12.2551 33.68 20.0635 25.79 29.6909 25.79C39.3182 25.79 47.1267 33.68 47.1267 43.4077Z" fill="#04A5D5"></path><path fill-rule="evenodd" clip-rule="evenodd" d="M68.4322 38.2459C68.4322 39.0863 67.7548 39.77 66.9207 39.77C66.0865 39.77 65.4092 39.0863 65.4092 38.2459C65.4092 37.4055 66.0865 36.7218 66.9207 36.7218C67.7548 36.7218 68.4322 37.4055 68.4322 38.2459Z" fill="#8ACEB0"></path><path fill-rule="evenodd" clip-rule="evenodd" d="M94.9747 28.0792C94.9747 29.1956 94.0779 30.105 92.9677 30.105C91.8576 30.105 90.9607 29.1956 90.9607 28.0792C90.9607 26.9628 91.8576 26.0534 92.9677 26.0534C94.0779 26.0534 94.9747 26.9628 94.9747 28.0792Z" fill="#8ACEB0"></path><path fill-rule="evenodd" clip-rule="evenodd" d="M27.6399 2.9227C27.6399 4.5283 26.3479 5.83285 24.7612 5.83285C23.1744 5.83285 21.8824 4.5283 21.8824 2.9227C21.8824 1.3171 23.1681 0.0125455 24.7612 0.0125455C26.3542 0.0125455 27.6399 1.3171 27.6399 2.9227Z" fill="#FFB800"></path><path fill-rule="evenodd" clip-rule="evenodd" d="M8.7428 13.9549C8.7428 15.4351 7.55741 16.633 6.0898 16.633C4.62218 16.633 3.4368 15.4351 3.4368 13.9549C3.4368 12.4748 4.62218 11.2768 6.0898 11.2768C7.55741 11.2768 8.7428 12.4748 8.7428 13.9549Z" fill="#8ACEB0"></path><path fill-rule="evenodd" clip-rule="evenodd" d="M18.251 25.8778C18.251 30.9705 14.168 35.0974 9.12539 35.0974C4.08281 35.0974 -0.000183105 30.9705 -0.000183105 25.8778C-0.000183105 20.785 4.08281 16.6581 9.12539 16.6581C14.168 16.6581 18.251 20.785 18.251 25.8778Z" fill="#E36370"></path><path fill-rule="evenodd" clip-rule="evenodd" d="M40.56 66.2059C40.56 69.16 38.1892 71.5558 35.2665 71.5558C32.3438 71.5558 29.9731 69.16 29.9731 66.2059C29.9731 63.2519 32.3438 60.856 35.2665 60.856C38.1892 60.856 40.56 63.2519 40.56 66.2059Z" fill="#195FF2"></path><path fill-rule="evenodd" clip-rule="evenodd" d="M61.5018 72.0137C61.5018 73.2743 60.492 74.2966 59.2439 74.2966C57.9958 74.2966 56.986 73.2743 56.986 72.0137C56.986 70.753 57.9958 69.7307 59.2439 69.7307C60.492 69.7307 61.5018 70.753 61.5018 72.0137Z" fill="#249BC3"></path><path fill-rule="evenodd" clip-rule="evenodd" d="M82.2115 47.2398C82.2115 52.2886 78.1598 56.3842 73.1612 56.3842C68.1625 56.3842 64.1109 52.2886 64.1109 47.2398C64.1109 42.1909 68.1625 38.0954 73.1612 38.0954C78.1598 38.0954 82.2115 42.1909 82.2115 47.2398Z" fill="#249BC3"></path><path fill-rule="evenodd" clip-rule="evenodd" d="M65.6098 2.92268C65.6098 4.1018 64.6628 5.05512 63.4962 5.05512C62.3296 5.05512 61.3826 4.1018 61.3826 2.92268C61.3826 1.74357 62.3296 0.790246 63.4962 0.790246C64.6628 0.790246 65.6098 1.74357 65.6098 2.92268Z" fill="#FFB800"></path><path fill-rule="evenodd" clip-rule="evenodd" d="M61.8154 5.24329C61.8154 6.84262 60.5359 8.13462 58.9491 8.13462C57.3624 8.13462 56.0829 6.83634 56.0829 5.24329C56.0829 3.65023 57.3624 2.35195 58.9491 2.35195C60.5359 2.35195 61.8154 3.65023 61.8154 5.24329Z" fill="#249BC3"></path><path fill-rule="evenodd" clip-rule="evenodd" d="M27.2385 21.8951C27.2385 24.4415 25.1939 26.5049 22.6789 26.5049C20.1639 26.5049 18.1193 24.4415 18.1193 21.8951C18.1193 19.3487 20.1639 17.2853 22.6789 17.2853C25.1939 17.2853 27.2385 19.3487 27.2385 21.8951Z" fill="#FFB800"></path><path fill-rule="evenodd" clip-rule="evenodd" d="M73.9702 58.7298C73.9702 60.0281 72.9291 61.0755 71.6496 61.0755C70.3702 61.0755 69.3291 60.0281 69.3291 58.7298C69.3291 57.4316 70.3702 56.3842 71.6496 56.3842C72.9291 56.3842 73.9702 57.4316 73.9702 58.7298Z" fill="#8ACEB0"></path><path fill-rule="evenodd" clip-rule="evenodd" d="M49.9176 59.6267C49.9176 62.0916 47.942 64.086 45.5022 64.086C43.0625 64.086 41.0868 62.0916 41.0868 59.6267C41.0868 57.1619 43.0625 55.1674 45.5022 55.1674C47.942 55.1674 49.9176 57.1619 49.9176 59.6267Z" fill="#E36370"></path><path fill-rule="evenodd" clip-rule="evenodd" d="M95.0061 24.015C95.0061 24.8366 94.3475 25.5015 93.5385 25.5015C92.7294 25.5015 92.0708 24.8366 92.0708 24.015C92.0708 23.1934 92.7294 22.5286 93.5385 22.5286C94.3475 22.5286 95.0061 23.1934 95.0061 24.015Z" fill="#FFB800"></path><path fill-rule="evenodd" clip-rule="evenodd" d="M46.3427 12.111C46.3427 13.1647 45.496 14.0239 44.4485 14.0239C43.4011 14.0239 42.5544 13.1647 42.5544 12.111C42.5544 11.0573 43.4011 10.1981 44.4485 10.1981C45.496 10.1981 46.3427 11.0573 46.3427 12.111Z" fill="#E36370"></path><path fill-rule="evenodd" clip-rule="evenodd" d="M32.2748 22.6603C32.2748 23.9398 31.2463 24.9809 29.9793 24.9809C28.7124 24.9809 27.6838 23.9398 27.6838 22.6603C27.6838 21.3808 28.7124 20.3397 29.9793 20.3397C31.2463 20.3397 32.2748 21.3808 32.2748 22.6603Z" fill="#6ACFF6"></path><path fill-rule="evenodd" clip-rule="evenodd" d="M42.1593 11.6281C42.1593 16.5327 38.2269 20.5028 33.3724 20.5028C28.518 20.5028 24.5855 16.5264 24.5855 11.6281C24.5855 6.72972 28.518 2.75335 33.3724 2.75335C38.2269 2.75335 42.1593 6.72972 42.1593 11.6281Z" fill="#39B54A"></path><path fill-rule="evenodd" clip-rule="evenodd" d="M58.1275 10.9068C58.1275 13.2525 56.2459 15.1529 53.9254 15.1529C51.6048 15.1529 49.7232 13.2525 49.7232 10.9068C49.7232 8.56111 51.6048 6.66073 53.9254 6.66073C56.2459 6.66073 58.1275 8.56111 58.1275 10.9068Z" fill="#39B54A"></path><path fill-rule="evenodd" clip-rule="evenodd" d="M70.527 0.984686C70.527 1.52407 70.0942 1.95683 69.5611 1.95683C69.028 1.95683 68.5953 1.52407 68.5953 0.984686C68.5953 0.445305 69.028 0.0125455 69.5611 0.0125455C70.0942 0.0125455 70.527 0.445305 70.527 0.984686Z" fill="#39B54A"></path><path fill-rule="evenodd" clip-rule="evenodd" d="M64.9513 39.4752C64.9513 44.4112 60.9937 48.4063 56.1142 48.4063C51.2347 48.4063 47.2772 44.4049 47.2772 39.4752C47.2772 34.5455 51.2347 30.544 56.1142 30.544C60.9937 30.544 64.9513 34.5455 64.9513 39.4752Z" fill="#39B54A"></path><path fill-rule="evenodd" clip-rule="evenodd" d="M90.8604 40.4724C90.8604 43.2571 88.6276 45.515 85.868 45.515C83.1084 45.515 80.8756 43.2571 80.8756 40.4724C80.8756 37.6877 83.1084 35.4298 85.868 35.4298C88.6276 35.4298 90.8604 37.6877 90.8604 40.4724Z" fill="#6ACFF6"></path><path fill-rule="evenodd" clip-rule="evenodd" d="M56.754 73.5628C56.754 78.5741 52.7337 82.6382 47.7727 82.6382C42.8116 82.6382 38.7913 78.5741 38.7913 73.5628C38.7913 68.5516 42.8116 64.4874 47.7727 64.4874C52.7337 64.4874 56.754 68.5516 56.754 73.5628Z" fill="#6ACFF6"></path><path fill-rule="evenodd" clip-rule="evenodd" d="M12.023 39.8891C12.023 42.2285 10.1477 44.1227 7.83338 44.1227C5.51906 44.1227 3.64378 42.2285 3.64378 39.8891C3.64378 37.5497 5.51906 35.6556 7.83338 35.6556C10.1477 35.6556 12.023 37.5497 12.023 39.8891Z" fill="#39B54A"></path><path fill-rule="evenodd" clip-rule="evenodd" d="M56.6285 23.0491C56.6285 28.0478 52.6145 32.0995 47.6723 32.0995C42.73 32.0995 38.7161 28.0478 38.7161 23.0491C38.7161 18.0505 42.73 13.9988 47.6723 13.9988C52.6145 13.9988 56.6285 18.0505 56.6285 23.0491Z" fill="#6ACFF6"></path><path fill-rule="evenodd" clip-rule="evenodd" d="M94.404 33.4981C94.404 35.3608 92.9113 36.8661 91.0736 36.8661C89.236 36.8661 87.7433 35.3608 87.7433 33.4981C87.7433 31.6353 89.236 30.1301 91.0736 30.1301C92.9113 30.1301 94.404 31.6353 94.404 33.4981Z" fill="#E36370"></path><path fill-rule="evenodd" clip-rule="evenodd" d="M69.3353 60.5675C69.3353 65.516 65.3652 69.53 60.4669 69.53C55.5686 69.53 51.5985 65.516 51.5985 60.5675C51.5985 55.619 55.5686 51.605 60.4669 51.605C65.3652 51.605 69.3353 55.619 69.3353 60.5675Z" fill="#FFB800"></path><path fill-rule="evenodd" clip-rule="evenodd" d="M30.3306 63.4965C30.3306 64.7571 29.3208 65.7794 28.0727 65.7794C26.8246 65.7794 25.8148 64.7571 25.8148 63.4965C25.8148 62.2358 26.8246 61.2135 28.0727 61.2135C29.3208 61.2135 30.3306 62.2358 30.3306 63.4965Z" fill="#6ACFF6"></path><path fill-rule="evenodd" clip-rule="evenodd" d="M11.8976 45.7847C11.8976 46.8133 11.0759 47.6412 10.0599 47.6412C9.04385 47.6412 8.22224 46.807 8.22224 45.7847C8.22224 44.7624 9.04385 43.9282 10.0599 43.9282C11.0759 43.9282 11.8976 44.7624 11.8976 45.7847Z" fill="#6ACFF6"></path><path fill-rule="evenodd" clip-rule="evenodd" d="M5.17412 35.5302C5.17412 36.5588 4.3525 37.3867 3.33646 37.3867C2.32042 37.3867 1.49881 36.5525 1.49881 35.5302C1.49881 34.5079 2.32042 33.6737 3.33646 33.6737C4.3525 33.6737 5.17412 34.5079 5.17412 35.5302Z" fill="#6ACFF6"></path><path fill-rule="evenodd" clip-rule="evenodd" d="M68.2691 1.37354C68.2691 2.13244 67.6607 2.74708 66.9081 2.74708C66.1555 2.74708 65.5471 2.13244 65.5471 1.37354C65.5471 0.614644 66.1555 0 66.9081 0C67.6607 0 68.2691 0.614644 68.2691 1.37354Z" fill="#6ACFF6"></path><path d="M262.275 49.6891C262.4 49.6891 262.506 49.7327 262.594 49.8201L263.343 50.6251C262.793 51.2117 262.194 51.7422 261.545 52.2164C260.909 52.6782 260.204 53.0776 259.43 53.4146C258.669 53.7391 257.826 53.9887 256.902 54.1635C255.991 54.3507 254.987 54.4443 253.888 54.4443C252.054 54.4443 250.369 54.126 248.834 53.4895C247.311 52.8405 246 51.9294 244.902 50.7562C243.804 49.5705 242.949 48.1414 242.337 46.469C241.738 44.7966 241.439 42.9369 241.439 40.8901C241.439 38.8806 241.751 37.0459 242.375 35.386C242.999 33.726 243.872 32.3032 244.996 31.1175C246.119 29.9194 247.467 28.9958 249.04 28.3468C250.612 27.6853 252.347 27.3545 254.244 27.3545C256.054 27.3545 257.658 27.6354 259.055 28.197C260.453 28.7586 261.726 29.5512 262.875 30.5746L262.294 31.4171C262.194 31.5668 262.038 31.6417 261.826 31.6417C261.676 31.6417 261.433 31.5044 261.096 31.2299C260.759 30.9553 260.291 30.6557 259.692 30.3312C259.093 29.9943 258.344 29.6885 257.445 29.4139C256.559 29.1393 255.492 29.002 254.244 29.002C252.647 29.002 251.18 29.2766 249.845 29.8258C248.522 30.3749 247.38 31.1612 246.419 32.1846C245.47 33.2081 244.727 34.4562 244.191 35.9289C243.654 37.4016 243.386 39.0554 243.386 40.8901C243.386 42.7622 243.654 44.4346 244.191 45.9074C244.74 47.3801 245.489 48.6282 246.437 49.6516C247.386 50.6626 248.503 51.4426 249.788 51.9918C251.086 52.5285 252.484 52.7968 253.982 52.7968C254.93 52.7968 255.773 52.7344 256.509 52.6096C257.258 52.4848 257.945 52.2976 258.569 52.048C259.193 51.7983 259.773 51.4926 260.31 51.1306C260.846 50.7687 261.377 50.3443 261.901 49.8576C261.963 49.8076 262.026 49.7702 262.088 49.7452C262.151 49.7078 262.213 49.6891 262.275 49.6891Z" fill="#3A3A39"></path><path d="M296.8 40.8901C296.8 42.9369 296.494 44.7966 295.883 46.469C295.271 48.129 294.41 49.5518 293.299 50.7375C292.188 51.9107 290.853 52.8218 289.293 53.4708C287.745 54.1073 286.035 54.4256 284.163 54.4256C282.291 54.4256 280.581 54.1073 279.033 53.4708C277.486 52.8218 276.157 51.9107 275.046 50.7375C273.935 49.5518 273.074 48.129 272.462 46.469C271.851 44.7966 271.545 42.9369 271.545 40.8901C271.545 38.8557 271.851 37.0085 272.462 35.3485C273.074 33.6761 273.935 32.2533 275.046 31.0801C276.157 29.8944 277.486 28.9771 279.033 28.3281C280.581 27.6791 282.291 27.3545 284.163 27.3545C286.035 27.3545 287.745 27.6791 289.293 28.3281C290.853 28.9646 292.188 29.8757 293.299 31.0614C294.41 32.2471 295.271 33.6761 295.883 35.3485C296.494 37.0085 296.8 38.8557 296.8 40.8901ZM294.815 40.8901C294.815 39.0429 294.56 37.3829 294.048 35.9102C293.536 34.4374 292.812 33.1894 291.876 32.1659C290.94 31.1425 289.817 30.3624 288.506 29.8258C287.196 29.2766 285.748 29.002 284.163 29.002C282.59 29.002 281.149 29.2766 279.838 29.8258C278.528 30.3624 277.398 31.1425 276.45 32.1659C275.514 33.1894 274.784 34.4374 274.259 35.9102C273.748 37.3829 273.492 39.0429 273.492 40.8901C273.492 42.7497 273.748 44.4159 274.259 45.8886C274.784 47.3489 275.514 48.5908 276.45 49.6142C277.398 50.6376 278.528 51.4177 279.838 51.9543C281.149 52.491 282.59 52.7594 284.163 52.7594C285.748 52.7594 287.196 52.491 288.506 51.9543C289.817 51.4177 290.94 50.6376 291.876 49.6142C292.812 48.5908 293.536 47.3489 294.048 45.8886C294.56 44.4159 294.815 42.7497 294.815 40.8901Z" fill="#3A3A39"></path><path d="M328.571 27.6541V54.1447H327.672C327.51 54.1447 327.372 54.1198 327.26 54.0699C327.16 54.0074 327.06 53.9076 326.961 53.7703L309.756 30.7806C309.793 31.155 309.812 31.5107 309.812 31.8477V54.1447H308.127V27.6541H309.082C309.256 27.6541 309.387 27.6791 309.475 27.729C309.575 27.7664 309.681 27.86 309.793 28.0098L326.961 50.9434C326.923 50.569 326.904 50.2133 326.904 49.8763V27.6541H328.571Z" fill="#3A3A39"></path><path d="M362.077 27.6541V54.1447H361.179C361.016 54.1447 360.879 54.1198 360.767 54.0699C360.667 54.0074 360.567 53.9076 360.467 53.7703L343.262 30.7806C343.3 31.155 343.319 31.5107 343.319 31.8477V54.1447H341.634V27.6541H342.588C342.763 27.6541 342.894 27.6791 342.982 27.729C343.081 27.7664 343.188 27.86 343.3 28.0098L360.467 50.9434C360.43 50.569 360.411 50.2133 360.411 49.8763V27.6541H362.077Z" fill="#3A3A39"></path><path d="M391.053 52.5534L391.016 54.1447H375.14V27.6541H391.016V29.2454H377.069V39.954H388.676V41.5079H377.069V52.5534H391.053Z" fill="#3A3A39"></path><path d="M420.631 49.6891C420.756 49.6891 420.862 49.7327 420.95 49.8201L421.699 50.6251C421.149 51.2117 420.55 51.7422 419.901 52.2164C419.265 52.6782 418.56 53.0776 417.786 53.4146C417.024 53.7391 416.182 53.9887 415.258 54.1635C414.347 54.3507 413.343 54.4443 412.244 54.4443C410.41 54.4443 408.725 54.126 407.19 53.4895C405.667 52.8405 404.356 51.9294 403.258 50.7562C402.16 49.5705 401.305 48.1414 400.693 46.469C400.094 44.7966 399.795 42.9369 399.795 40.8901C399.795 38.8806 400.107 37.0459 400.731 35.386C401.355 33.726 402.228 32.3032 403.352 31.1175C404.475 29.9194 405.823 28.9958 407.395 28.3468C408.968 27.6853 410.703 27.3545 412.6 27.3545C414.41 27.3545 416.013 27.6354 417.411 28.197C418.809 28.7586 420.082 29.5512 421.23 30.5746L420.65 31.4171C420.55 31.5668 420.394 31.6417 420.182 31.6417C420.032 31.6417 419.789 31.5044 419.452 31.2299C419.115 30.9553 418.647 30.6557 418.048 30.3312C417.449 29.9943 416.7 29.6885 415.801 29.4139C414.915 29.1393 413.848 29.002 412.6 29.002C411.002 29.002 409.536 29.2766 408.2 29.8258C406.877 30.3749 405.735 31.1612 404.774 32.1846C403.826 33.2081 403.083 34.4562 402.547 35.9289C402.01 37.4016 401.742 39.0554 401.742 40.8901C401.742 42.7622 402.01 44.4346 402.547 45.9074C403.096 47.3801 403.845 48.6282 404.793 49.6516C405.742 50.6626 406.859 51.4426 408.144 51.9918C409.442 52.5285 410.84 52.7968 412.338 52.7968C413.286 52.7968 414.129 52.7344 414.865 52.6096C415.614 52.4848 416.301 52.2976 416.925 52.048C417.549 51.7983 418.129 51.4926 418.666 51.1306C419.202 50.7687 419.733 50.3443 420.257 49.8576C420.319 49.8076 420.382 49.7702 420.444 49.7452C420.507 49.7078 420.569 49.6891 420.631 49.6891Z" fill="#3A3A39"></path><path d="M449.286 29.2828H439.981V54.1447H438.053V29.2828H428.692V27.6541H449.286V29.2828Z" fill="#3A3A39"></path><path d="M142.46 47.7608C142.735 47.7608 142.972 47.8669 143.171 48.079L145.156 50.232C144.058 51.5924 142.703 52.6345 141.093 53.3584C139.496 54.0823 137.574 54.4443 135.327 54.4443C133.318 54.4443 131.508 54.101 129.898 53.4146C128.3 52.7282 126.934 51.7734 125.798 50.5502C124.662 49.3271 123.789 47.8669 123.177 46.1695C122.578 44.4721 122.278 42.6187 122.278 40.6092C122.278 38.5748 122.615 36.7152 123.289 35.0303C123.963 33.3329 124.912 31.8726 126.135 30.6495C127.358 29.4264 128.818 28.4778 130.516 27.8039C132.226 27.1174 134.11 26.7742 136.17 26.7742C138.179 26.7742 139.933 27.0987 141.43 27.7477C142.94 28.3842 144.232 29.2329 145.306 30.2938L143.621 32.634C143.521 32.7837 143.39 32.9148 143.228 33.0271C143.078 33.1394 142.866 33.1956 142.591 33.1956C142.304 33.1956 142.011 33.0833 141.711 32.8586C141.412 32.634 141.031 32.3906 140.569 32.1285C140.107 31.8664 139.521 31.623 138.809 31.3983C138.11 31.1737 137.218 31.0614 136.132 31.0614C134.859 31.0614 133.686 31.286 132.613 31.7353C131.552 32.1722 130.634 32.8024 129.861 33.6262C129.099 34.4499 128.5 35.4546 128.063 36.6403C127.639 37.8135 127.427 39.1365 127.427 40.6092C127.427 42.1319 127.639 43.4861 128.063 44.6718C128.5 45.8574 129.087 46.8559 129.823 47.6672C130.559 48.4784 131.427 49.1025 132.425 49.5393C133.424 49.9636 134.497 50.1758 135.645 50.1758C136.332 50.1758 136.95 50.1384 137.499 50.0635C138.06 49.9886 138.572 49.87 139.034 49.7078C139.508 49.5455 139.951 49.3396 140.363 49.09C140.788 48.8279 141.206 48.5096 141.617 48.1352C141.742 48.0229 141.873 47.9355 142.011 47.8731C142.148 47.7982 142.298 47.7608 142.46 47.7608Z" fill="url(#paint0_linear_336_39458)"></path><path d="M178.008 54.1447H174.114C173.677 54.1447 173.315 54.0386 173.028 53.8265C172.753 53.6018 172.554 53.3272 172.429 53.0027L170.407 47.48H159.193L157.171 53.0027C157.071 53.2898 156.872 53.5519 156.572 53.789C156.285 54.0262 155.929 54.1447 155.505 54.1447H151.592L162.226 27.0737H167.374L178.008 54.1447ZM160.485 43.9229H169.115L165.82 34.918C165.671 34.5186 165.502 34.0505 165.315 33.5139C165.14 32.9647 164.965 32.3719 164.791 31.7353C164.616 32.3719 164.441 32.9647 164.266 33.5139C164.104 34.063 163.942 34.5435 163.78 34.9554L160.485 43.9229Z" fill="url(#paint1_linear_336_39458)"></path><path d="M191.242 43.5672V54.1447H186.206V27.0737H194.462C196.31 27.0737 197.888 27.2672 199.199 27.6541C200.522 28.0285 201.602 28.559 202.438 29.2454C203.286 29.9318 203.904 30.7556 204.291 31.7166C204.691 32.6652 204.89 33.7135 204.89 34.8618C204.89 35.7729 204.753 36.6341 204.478 37.4453C204.216 38.2566 203.829 38.993 203.318 39.6544C202.818 40.3159 202.194 40.8963 201.446 41.3955C200.709 41.8948 199.867 42.2941 198.918 42.5937C199.555 42.9556 200.104 43.4736 200.566 44.1476L207.343 54.1447H202.812C202.375 54.1447 202.001 54.0574 201.689 53.8826C201.389 53.7079 201.133 53.4583 200.921 53.1338L195.23 44.4658C195.018 44.1413 194.781 43.9104 194.519 43.7731C194.269 43.6358 193.895 43.5672 193.395 43.5672H191.242ZM191.242 39.954H194.388C195.336 39.954 196.16 39.8354 196.859 39.5983C197.57 39.3611 198.151 39.0366 198.6 38.6248C199.062 38.2004 199.405 37.7012 199.63 37.1271C199.854 36.5529 199.967 35.9227 199.967 35.2362C199.967 33.8633 199.511 32.8087 198.6 32.0723C197.701 31.3359 196.322 30.9678 194.462 30.9678H191.242V39.954Z" fill="url(#paint2_linear_336_39458)"></path><path d="M232.889 27.0737V31.0801H220.888V38.5873H230.343V42.4626H220.888V50.1197H232.889V54.1447H215.815V27.0737H232.889Z" fill="url(#paint3_linear_336_39458)"></path><defs><linearGradient id="paint0_linear_336_39458" x1="-0.000173078" y1="-10.5774" x2="167.382" y2="201.652" gradientUnits="userSpaceOnUse"><stop stop-color="#195FF1"></stop><stop offset="1" stop-color="#0F9BD0"></stop></linearGradient><linearGradient id="paint1_linear_336_39458" x1="-0.000173078" y1="-10.5774" x2="167.382" y2="201.652" gradientUnits="userSpaceOnUse"><stop stop-color="#195FF1"></stop><stop offset="1" stop-color="#0F9BD0"></stop></linearGradient><linearGradient id="paint2_linear_336_39458" x1="-0.000173078" y1="-10.5774" x2="167.382" y2="201.652" gradientUnits="userSpaceOnUse"><stop stop-color="#195FF1"></stop><stop offset="1" stop-color="#0F9BD0"></stop></linearGradient><linearGradient id="paint3_linear_336_39458" x1="-0.000173078" y1="-10.5774" x2="167.382" y2="201.652" gradientUnits="userSpaceOnUse"><stop stop-color="#195FF1"></stop><stop offset="1" stop-color="#0F9BD0"></stop></linearGradient></defs></svg>